<svg width="1050" height="1050" viewBox="0 0 1050 1050" fill="none" xmlns="http://www.w3.org/2000/svg">
<g clip-path="url(#clip0_367_21)">
<path d="M1050 0H0V1050H1050V0Z" fill="white"/>
<path d="M566.564 445.84C572.877 427.26 576.985 407.757 578.668 387.662L538.549 368.229C538.594 361.726 538.361 355.174 537.774 348.593C537.61 346.317 537.305 344.084 537.048 341.821L574.789 317.97C570.864 298.158 564.624 279.234 556.327 261.543L511.747 264.778C507.398 257.055 502.539 249.635 497.258 242.61L518.005 203.147C504.899 188.241 490.014 174.941 473.746 163.536L436.783 188.591C429.212 184.128 421.341 180.119 413.183 176.608L411.431 132.065C392.858 125.755 373.339 121.64 353.271 119.912L333.829 160.068C327.332 160.01 320.815 160.264 314.202 160.831C311.909 161.031 309.666 161.318 307.424 161.587L283.609 123.804C263.773 127.765 244.846 134.008 227.137 142.291L230.384 186.867C222.671 191.23 215.242 196.069 208.234 201.371L168.744 180.609C153.811 193.742 140.512 208.612 129.157 224.904L154.234 261.846C149.744 269.426 145.701 277.29 142.221 285.424L97.657 287.174C91.348 305.753 87.26 325.235 85.553 345.358L125.693 364.789C125.651 371.298 125.863 377.841 126.429 384.428C126.632 386.704 126.916 388.928 127.219 391.197L89.436 415.03C93.409 434.845 99.621 453.769 107.916 471.463L152.477 468.234C156.847 475.95 161.686 483.34 166.969 490.391L146.214 529.841C159.323 544.799 174.235 558.089 190.497 569.461L227.442 544.402C235.034 548.908 242.911 552.929 251.042 556.409L252.797 600.961C271.371 607.255 290.834 611.379 310.93 613.077L330.417 572.936C336.893 572.976 343.459 572.754 350.05 572.189C352.313 572.007 354.556 571.693 356.777 571.408L380.61 609.221C400.473 605.251 419.374 599.032 437.091 590.75L433.868 546.159C441.551 541.768 448.956 536.942 456.018 531.662L495.484 552.414C510.39 539.281 523.687 524.42 535.067 508.134L510.036 471.189C514.482 463.597 518.498 455.72 522.028 447.577L566.564 445.84ZM332.122 512.005C251.878 512.005 186.619 446.734 186.619 366.507C186.619 286.284 251.878 221.01 332.122 221.01C412.342 221.01 477.608 286.284 477.608 366.507C477.608 446.733 412.343 512.005 332.122 512.005Z" fill="#00A6F4"/>
<path d="M197.016 366.507C197.016 440.996 257.603 501.607 332.122 501.607C406.62 501.607 467.207 440.996 467.207 366.507C467.207 292.012 406.62 231.398 332.122 231.398C257.603 231.398 197.016 292.012 197.016 366.507ZM433.788 357.629C438.672 413.813 397.131 463.313 340.98 468.188C284.829 473.102 235.314 431.509 230.409 375.373C225.549 319.216 267.094 269.707 323.242 264.832C379.416 259.927 428.931 301.499 433.788 357.629Z" fill="#00A6F4"/>
<path d="M186.619 366.507C186.619 446.734 251.878 512.005 332.122 512.005C412.342 512.005 477.608 446.734 477.608 366.507C477.608 286.284 412.343 221.01 332.122 221.01C251.878 221.009 186.619 286.284 186.619 366.507ZM467.208 366.507C467.208 440.996 406.621 501.607 332.123 501.607C257.604 501.607 197.017 440.996 197.017 366.507C197.017 292.012 257.604 231.398 332.123 231.398C406.62 231.398 467.208 292.012 467.208 366.507Z" fill="#101828"/>
<path d="M467.191 741.533C465.857 805.373 516.709 858.401 580.54 859.735C644.38 861.079 697.402 810.217 698.736 746.393C700.086 682.556 649.242 629.528 585.379 628.19C521.541 626.853 468.52 677.696 467.191 741.533ZM643.96 706.068C663.822 739.651 652.705 782.99 619.122 802.858C585.101 822.966 541.148 811.301 521.612 776.759C503.292 744.317 514.277 701.601 545.962 681.987C579.705 661.095 623.846 672.122 643.96 706.068Z" fill="#101828"/>
<path d="M769.044 762.319C770.354 748.847 770.239 735.275 768.629 721.694L737.125 714.159C735.47 705.901 733.13 697.664 730.183 689.594L753.269 666.815C750.495 660.687 747.362 654.644 743.858 648.746C740.393 642.87 736.613 637.244 732.568 631.849L701.488 641.136C695.839 634.618 689.759 628.635 683.265 623.24L691.868 591.999C680.745 584.053 668.895 577.396 656.467 572.064L634.15 595.667C626.11 592.883 617.858 590.765 609.497 589.309L601.248 557.872C587.809 556.571 574.214 556.716 560.705 558.374L553.106 589.863C544.836 591.467 536.66 593.796 528.595 596.79L505.794 573.722C499.718 576.469 493.621 579.562 487.732 583.084C481.841 586.555 476.212 590.347 470.834 594.344L480.088 625.479C473.594 631.138 467.609 637.205 462.21 643.687L430.969 635.111C423.004 646.195 416.366 658.055 411.037 670.452L434.616 692.79C431.835 700.839 429.78 709.091 428.306 717.452L396.902 725.694C395.574 739.136 395.71 752.735 397.323 766.288L428.869 773.793C430.482 782.096 432.791 790.288 435.739 798.398L412.674 821.169C415.434 827.303 418.535 833.316 422.043 839.183C425.547 845.102 429.311 850.751 433.33 856.114L464.452 846.851C470.087 853.345 476.211 859.324 482.66 864.714L474.103 895.991C485.208 903.922 497.028 910.61 509.413 915.873L531.779 892.312C539.844 895.117 548.017 897.208 556.453 898.64L564.675 930.072C578.092 931.346 591.716 931.261 605.267 929.639L612.771 898.108C621.062 896.507 629.263 894.174 637.327 891.187L660.204 914.266C666.28 911.534 672.305 908.401 678.197 904.909C684.104 901.423 689.69 897.643 695.085 893.595L685.834 862.515C692.334 856.869 698.317 850.762 703.709 844.301L734.974 852.868C742.92 841.765 749.605 829.91 754.864 817.515L731.285 795.149C734.045 787.154 736.191 778.923 737.64 770.526L769.044 762.319ZM580.428 864.747C513.834 863.355 460.785 808.033 462.189 741.427C463.566 674.833 518.879 621.781 585.497 623.179C652.094 624.571 705.131 679.893 703.757 746.499C702.353 813.099 647.049 866.151 580.428 864.747Z" fill="#101828"/>
<path d="M462.189 741.427C460.785 808.033 513.834 863.355 580.428 864.747C647.049 866.151 702.353 813.099 703.757 746.499C705.131 679.893 652.094 624.571 585.497 623.179C518.879 621.781 463.566 674.833 462.189 741.427ZM698.737 746.393C697.403 810.218 644.38 861.079 580.541 859.735C516.71 858.401 465.857 805.373 467.192 741.533C468.521 677.696 521.542 626.852 585.38 628.19C649.243 629.528 700.086 682.556 698.737 746.393Z" fill="#00A6F4"/>
<path d="M764.635 375.512C763.836 413.745 794.29 445.502 832.517 446.301C870.749 447.106 902.503 416.646 903.302 378.423C904.11 340.192 873.661 308.435 835.415 307.634C797.184 306.833 765.431 337.282 764.635 375.512ZM870.498 354.273C882.393 374.385 875.735 400.34 855.623 412.239C835.248 424.281 808.926 417.295 797.226 396.608C786.255 377.18 792.833 351.598 811.809 339.852C832.017 327.34 858.452 333.944 870.498 354.273Z" fill="#101828"/>
<path d="M945.408 387.961C946.192 379.893 946.123 371.765 945.159 363.631L926.292 359.119C925.301 354.173 923.9 349.24 922.135 344.407L935.96 330.766C934.299 327.096 932.423 323.477 930.324 319.945C928.249 316.426 925.985 313.056 923.563 309.825L904.95 315.387C901.567 311.484 897.926 307.901 894.037 304.67L899.189 285.96C892.527 281.201 885.431 277.215 877.988 274.021L864.623 288.157C859.808 286.489 854.866 285.221 849.859 284.349L844.918 265.522C836.87 264.743 828.728 264.83 820.638 265.823L816.087 284.681C811.135 285.641 806.238 287.036 801.408 288.829L787.753 275.014C784.114 276.659 780.463 278.512 776.936 280.621C773.408 282.7 770.037 284.971 766.817 287.364L772.359 306.01C768.469 309.399 764.885 313.033 761.652 316.915L742.942 311.779C738.172 318.417 734.197 325.519 731.005 332.944L745.126 346.321C743.461 351.142 742.23 356.084 741.347 361.091L722.54 366.027C721.745 374.077 721.826 382.221 722.792 390.338L741.685 394.832C742.651 399.805 744.033 404.711 745.799 409.568L731.986 423.205C733.639 426.878 735.496 430.479 737.597 433.993C739.695 437.538 741.949 440.921 744.356 444.132L762.994 438.585C766.369 442.474 770.037 446.055 773.899 449.283L768.774 468.014C775.425 472.764 782.503 476.769 789.921 479.921L803.315 465.811C808.145 467.49 813.04 468.743 818.092 469.6L823.016 488.424C831.051 489.187 839.21 489.136 847.325 488.165L851.819 469.282C856.785 468.323 861.696 466.926 866.525 465.137L880.226 478.958C883.865 477.322 887.473 475.446 891.001 473.355C894.539 471.267 897.884 469.003 901.115 466.579L895.575 447.966C899.468 444.585 903.051 440.927 906.28 437.058L925.004 442.188C929.763 435.539 933.766 428.439 936.916 421.016L922.795 407.622C924.448 402.834 925.733 397.904 926.6 392.876L945.408 387.961ZM832.45 449.303C792.568 448.469 760.798 415.338 761.639 375.449C762.464 335.567 795.59 303.796 835.486 304.633C875.369 305.467 907.132 338.598 906.309 378.487C905.468 418.372 872.348 450.143 832.45 449.303Z" fill="#101828"/>
<path d="M761.639 375.449C760.798 415.338 792.568 448.469 832.45 449.302C872.348 450.143 905.468 418.372 906.309 378.486C907.131 338.598 875.369 305.467 835.485 304.633C795.589 303.796 762.464 335.567 761.639 375.449ZM903.302 378.423C902.503 416.646 870.749 447.106 832.517 446.301C794.29 445.502 763.836 413.745 764.635 375.512C765.431 337.282 797.184 306.833 835.415 307.634C873.661 308.435 904.11 340.192 903.302 378.423Z" fill="#00A6F4"/>
<rect x="332" y="367" width="524" height="405" fill="white"/>
<path d="M342.778 692V377.818H473.79C497.313 377.818 517 381.142 532.852 387.79C548.807 394.437 560.773 403.744 568.75 415.71C576.83 427.676 580.869 441.534 580.869 457.284C580.869 469.25 578.364 479.938 573.352 489.347C568.341 498.653 561.438 506.375 552.642 512.511C543.847 518.648 533.67 522.943 522.114 525.398V528.466C534.795 529.08 546.506 532.506 557.244 538.744C568.085 544.983 576.778 553.676 583.324 564.824C589.869 575.869 593.142 588.96 593.142 604.097C593.142 620.972 588.847 636.057 580.256 649.352C571.665 662.545 559.239 672.977 542.977 680.648C526.716 688.216 506.977 692 483.761 692H342.778ZM418.716 630.79H465.659C482.125 630.79 494.244 627.67 502.017 621.432C509.892 615.193 513.83 606.5 513.83 595.352C513.83 587.273 511.938 580.318 508.153 574.489C504.369 568.557 499 564.006 492.045 560.835C485.091 557.562 476.756 555.926 467.04 555.926H418.716V630.79ZM418.716 506.989H460.75C469.034 506.989 476.398 505.608 482.841 502.847C489.284 500.085 494.295 496.097 497.875 490.881C501.557 485.665 503.398 479.375 503.398 472.011C503.398 461.477 499.665 453.193 492.199 447.159C484.733 441.125 474.659 438.108 461.977 438.108H418.716V506.989Z" fill="#101828"/>
<path d="M629.653 692V377.818H844.119V439.489H705.591V503.92H830.466V565.744H705.591V692H629.653Z" fill="#00A6F4"/>
<path d="M341.569 761V700.636H366.74C371.259 700.636 375.042 701.275 378.087 702.552C381.153 703.829 383.452 705.618 384.984 707.917C386.537 710.216 387.313 712.878 387.313 715.904C387.313 718.203 386.831 720.257 385.869 722.064C384.906 723.852 383.579 725.336 381.89 726.515C380.2 727.694 378.245 728.519 376.024 728.991V729.58C378.461 729.698 380.711 730.356 382.774 731.555C384.857 732.754 386.527 734.424 387.784 736.566C389.042 738.688 389.671 741.203 389.671 744.111C389.671 747.353 388.846 750.252 387.195 752.806C385.544 755.341 383.157 757.345 380.033 758.819C376.908 760.273 373.116 761 368.656 761H341.569ZM356.158 749.24H365.178C368.341 749.24 370.67 748.64 372.163 747.442C373.676 746.243 374.433 744.573 374.433 742.431C374.433 740.879 374.069 739.543 373.342 738.423C372.615 737.283 371.583 736.408 370.247 735.799C368.911 735.171 367.31 734.856 365.443 734.856H356.158V749.24ZM356.158 725.454H364.234C365.826 725.454 367.241 725.189 368.479 724.658C369.717 724.127 370.679 723.361 371.367 722.359C372.075 721.357 372.428 720.148 372.428 718.734C372.428 716.71 371.711 715.118 370.277 713.959C368.842 712.799 366.907 712.22 364.47 712.22H356.158V725.454ZM411.099 735.18V761H396.686V700.636H410.627V724.039H411.128C412.15 721.249 413.82 719.068 416.139 717.496C418.477 715.924 421.336 715.138 424.716 715.138C427.899 715.138 430.67 715.845 433.028 717.26C435.386 718.655 437.213 720.63 438.51 723.184C439.826 725.739 440.475 728.725 440.455 732.145V761H426.042V734.974C426.062 732.459 425.433 730.494 424.156 729.079C422.879 727.664 421.081 726.957 418.762 726.957C417.249 726.957 415.913 727.291 414.754 727.959C413.614 728.608 412.72 729.541 412.071 730.759C411.443 731.978 411.118 733.451 411.099 735.18ZM462.215 761.766C459.326 761.766 456.762 761.285 454.522 760.322C452.302 759.34 450.543 757.866 449.246 755.901C447.969 753.916 447.33 751.431 447.33 748.444C447.33 745.929 447.772 743.807 448.657 742.077C449.541 740.348 450.759 738.943 452.311 737.863C453.864 736.782 455.652 735.966 457.676 735.416C459.7 734.846 461.861 734.463 464.16 734.267C466.734 734.031 468.807 733.785 470.379 733.53C471.951 733.255 473.091 732.872 473.798 732.38C474.525 731.869 474.889 731.152 474.889 730.229V730.081C474.889 728.568 474.368 727.399 473.327 726.574C472.285 725.749 470.88 725.336 469.112 725.336C467.206 725.336 465.673 725.749 464.514 726.574C463.354 727.399 462.618 728.539 462.303 729.993L449.01 729.521C449.403 726.77 450.415 724.314 452.046 722.153C453.697 719.972 455.956 718.262 458.825 717.024C461.714 715.767 465.182 715.138 469.23 715.138C472.118 715.138 474.781 715.482 477.217 716.169C479.654 716.837 481.776 717.82 483.584 719.117C485.391 720.394 486.787 721.966 487.769 723.833C488.771 725.699 489.272 727.831 489.272 730.229V761H475.714V754.692H475.36C474.555 756.225 473.523 757.522 472.266 758.583C471.028 759.644 469.564 760.44 467.874 760.971C466.204 761.501 464.317 761.766 462.215 761.766ZM466.665 752.335C468.218 752.335 469.613 752.02 470.851 751.391C472.108 750.763 473.11 749.898 473.857 748.798C474.604 747.678 474.977 746.381 474.977 744.907V740.604C474.565 740.82 474.063 741.016 473.474 741.193C472.904 741.37 472.275 741.537 471.588 741.694C470.9 741.851 470.193 741.989 469.465 742.107C468.738 742.225 468.041 742.333 467.373 742.431C466.017 742.647 464.858 742.981 463.895 743.433C462.952 743.885 462.225 744.475 461.714 745.202C461.222 745.909 460.977 746.754 460.977 747.737C460.977 749.23 461.507 750.37 462.568 751.156C463.649 751.942 465.015 752.335 466.665 752.335ZM498.085 761V715.727H512.085V723.98H512.557C513.382 720.993 514.728 718.773 516.595 717.319C518.462 715.845 520.633 715.108 523.109 715.108C523.777 715.108 524.465 715.157 525.172 715.256C525.88 715.334 526.538 715.462 527.147 715.639V728.165C526.459 727.93 525.555 727.743 524.435 727.605C523.335 727.468 522.352 727.399 521.488 727.399C519.778 727.399 518.236 727.782 516.86 728.549C515.505 729.295 514.434 730.347 513.648 731.702C512.881 733.039 512.498 734.611 512.498 736.418V761H498.085ZM544.08 761.766C541.191 761.766 538.627 761.285 536.387 760.322C534.167 759.34 532.408 757.866 531.111 755.901C529.834 753.916 529.195 751.431 529.195 748.444C529.195 745.929 529.638 743.807 530.522 742.077C531.406 740.348 532.624 738.943 534.177 737.863C535.729 736.782 537.517 735.966 539.541 735.416C541.565 734.846 543.726 734.463 546.025 734.267C548.599 734.031 550.672 733.785 552.244 733.53C553.816 733.255 554.956 732.872 555.663 732.38C556.39 731.869 556.754 731.152 556.754 730.229V730.081C556.754 728.568 556.233 727.399 555.192 726.574C554.15 725.749 552.745 725.336 550.977 725.336C549.071 725.336 547.538 725.749 546.379 726.574C545.22 727.399 544.483 728.539 544.168 729.993L530.875 729.521C531.268 726.77 532.28 724.314 533.911 722.153C535.562 719.972 537.822 718.262 540.69 717.024C543.579 715.767 547.047 715.138 551.095 715.138C553.983 715.138 556.646 715.482 559.082 716.169C561.519 716.837 563.641 717.82 565.449 719.117C567.257 720.394 568.652 721.966 569.634 723.833C570.636 725.699 571.138 727.831 571.138 730.229V761H557.579V754.692H557.226C556.42 756.225 555.388 757.522 554.131 758.583C552.893 759.644 551.429 760.44 549.739 760.971C548.069 761.501 546.182 761.766 544.08 761.766ZM548.531 752.335C550.083 752.335 551.478 752.02 552.716 751.391C553.974 750.763 554.976 749.898 555.722 748.798C556.469 747.678 556.842 746.381 556.842 744.907V740.604C556.43 740.82 555.929 741.016 555.339 741.193C554.769 741.37 554.141 741.537 553.453 741.694C552.765 741.851 552.058 741.989 551.331 742.107C550.604 742.225 549.906 742.333 549.238 742.431C547.882 742.647 546.723 742.981 545.76 743.433C544.817 743.885 544.09 744.475 543.579 745.202C543.088 745.909 542.842 746.754 542.842 747.737C542.842 749.23 543.373 750.37 544.434 751.156C545.514 751.942 546.88 752.335 548.531 752.335ZM605.505 715.727V726.338H576.944V715.727H605.505ZM582.927 704.881H597.34V746.764C597.34 747.648 597.478 748.365 597.753 748.915C598.048 749.446 598.47 749.829 599.02 750.065C599.571 750.281 600.229 750.389 600.995 750.389C601.545 750.389 602.125 750.34 602.734 750.242C603.363 750.124 603.834 750.026 604.149 749.947L606.33 760.352C605.642 760.548 604.67 760.794 603.412 761.088C602.174 761.383 600.691 761.57 598.961 761.648C595.582 761.806 592.683 761.413 590.266 760.469C587.869 759.507 586.032 758.013 584.755 755.989C583.497 753.965 582.888 751.421 582.927 748.355V704.881Z" fill="#101828"/>
<path d="M630.691 761V700.636H671.896V712.485H645.28V724.864H669.273V736.743H645.28V761H630.691ZM697.052 761.855C692.297 761.855 688.21 760.882 684.791 758.937C681.392 756.972 678.768 754.241 676.921 750.743C675.094 747.226 674.18 743.148 674.18 738.511C674.18 733.854 675.094 729.777 676.921 726.279C678.768 722.762 681.392 720.031 684.791 718.085C688.21 716.12 692.297 715.138 697.052 715.138C701.807 715.138 705.885 716.12 709.284 718.085C712.703 720.031 715.326 722.762 717.154 726.279C719.001 729.777 719.924 733.854 719.924 738.511C719.924 743.148 719.001 747.226 717.154 750.743C715.326 754.241 712.703 756.972 709.284 758.937C705.885 760.882 701.807 761.855 697.052 761.855ZM697.141 750.979C698.87 750.979 700.334 750.448 701.532 749.387C702.731 748.326 703.645 746.852 704.274 744.966C704.922 743.08 705.246 740.898 705.246 738.423C705.246 735.907 704.922 733.707 704.274 731.82C703.645 729.934 702.731 728.46 701.532 727.399C700.334 726.338 698.87 725.808 697.141 725.808C695.353 725.808 693.84 726.338 692.602 727.399C691.383 728.46 690.45 729.934 689.802 731.82C689.173 733.707 688.858 735.907 688.858 738.423C688.858 740.898 689.173 743.08 689.802 744.966C690.45 746.852 691.383 748.326 692.602 749.387C693.84 750.448 695.353 750.979 697.141 750.979ZM727.308 761V715.727H741.308V723.98H741.78C742.605 720.993 743.951 718.773 745.818 717.319C747.684 715.845 749.856 715.108 752.332 715.108C753 715.108 753.687 715.157 754.395 715.256C755.102 715.334 755.76 715.462 756.37 715.639V728.165C755.682 727.93 754.778 727.743 753.658 727.605C752.558 727.468 751.575 727.399 750.71 727.399C749.001 727.399 747.458 727.782 746.083 728.549C744.727 729.295 743.656 730.347 742.87 731.702C742.104 733.039 741.721 734.611 741.721 736.418V761H727.308ZM780.995 778.92C776.692 778.92 773.008 778.321 769.943 777.123C766.877 775.924 764.47 774.283 762.721 772.2C760.973 770.117 759.921 767.759 759.568 765.126L773.214 764.36C773.47 765.284 773.941 766.089 774.629 766.777C775.336 767.465 776.25 767.995 777.37 768.369C778.51 768.742 779.846 768.929 781.379 768.929C783.796 768.929 785.79 768.339 787.362 767.16C788.954 766.001 789.749 763.967 789.749 761.059V753.101H789.248C788.678 754.496 787.814 755.744 786.655 756.844C785.495 757.944 784.051 758.809 782.322 759.438C780.612 760.067 778.647 760.381 776.427 760.381C773.126 760.381 770.1 759.615 767.349 758.082C764.618 756.53 762.427 754.132 760.776 750.89C759.145 747.628 758.33 743.433 758.33 738.305C758.33 733.019 759.175 728.667 760.864 725.248C762.554 721.809 764.765 719.264 767.496 717.614C770.247 715.963 773.204 715.138 776.368 715.138C778.746 715.138 780.779 715.55 782.469 716.376C784.179 717.181 785.584 718.223 786.684 719.5C787.784 720.777 788.62 722.104 789.189 723.479H789.602V715.727H803.956V761.177C803.956 765.009 802.993 768.241 801.068 770.874C799.142 773.507 796.45 775.501 792.992 776.857C789.533 778.233 785.535 778.92 780.995 778.92ZM781.438 749.888C783.186 749.888 784.68 749.426 785.918 748.503C787.156 747.579 788.109 746.253 788.777 744.524C789.445 742.795 789.779 740.722 789.779 738.305C789.779 735.848 789.445 733.736 788.777 731.968C788.128 730.18 787.175 728.804 785.918 727.841C784.68 726.878 783.186 726.397 781.438 726.397C779.649 726.397 778.136 726.888 776.899 727.871C775.661 728.853 774.717 730.239 774.069 732.027C773.44 733.795 773.126 735.888 773.126 738.305C773.126 740.722 773.45 742.795 774.098 744.524C774.747 746.253 775.68 747.579 776.899 748.503C778.136 749.426 779.649 749.888 781.438 749.888ZM834.307 761.855C829.572 761.855 825.485 760.921 822.046 759.055C818.627 757.168 815.994 754.486 814.147 751.008C812.319 747.511 811.406 743.355 811.406 738.54C811.406 733.864 812.329 729.777 814.176 726.279C816.023 722.762 818.627 720.031 821.987 718.085C825.347 716.12 829.307 715.138 833.865 715.138C837.088 715.138 840.035 715.639 842.708 716.641C845.38 717.643 847.689 719.127 849.634 721.092C851.579 723.057 853.092 725.483 854.173 728.372C855.254 731.241 855.794 734.532 855.794 738.246V741.842H816.446V733.471H842.383C842.364 731.938 842 730.573 841.293 729.374C840.585 728.175 839.613 727.242 838.375 726.574C837.157 725.886 835.752 725.542 834.16 725.542C832.549 725.542 831.104 725.906 829.827 726.633C828.55 727.34 827.538 728.313 826.791 729.551C826.045 730.769 825.652 732.154 825.612 733.707V742.225C825.612 744.072 825.976 745.693 826.703 747.088C827.43 748.464 828.462 749.534 829.798 750.301C831.134 751.067 832.726 751.45 834.573 751.45C835.85 751.45 837.009 751.273 838.051 750.92C839.092 750.566 839.986 750.045 840.733 749.358C841.479 748.67 842.039 747.825 842.413 746.823L855.647 747.206C855.097 750.173 853.888 752.757 852.021 754.958C850.174 757.139 847.748 758.839 844.741 760.057C841.735 761.255 838.257 761.855 834.307 761.855Z" fill="#00A6F4"/>
</g>
<defs>
<clipPath id="clip0_367_21">
<rect width="1050" height="1050" fill="white"/>
</clipPath>
</defs>
</svg>
